HIERARCHY
ROOT Hips
{
	OFFSET -2.235441 104.804031 3.163491
	CHANNELS 6 Xposition Yposition Zposition Xrotation Yrotation Zrotation
	JOINT Chest
	{
		OFFSET -6.193823 12.130821 -0.796191
		CHANNELS 3 Xrotation Yrotation Zrotation
		JOINT Chest2
		{
			OFFSET -5.580397 20.464851 -3.019236
			CHANNELS 3 Xrotation Yrotation Zrotation
			JOINT Chest3
			{
				OFFSET 3.114478 14.416428 -2.299250
				CHANNELS 3 Xrotation Yrotation Zrotation
				JOINT Neck
				{
					OFFSET 0.829348 17.243851 -0.760051
					CHANNELS 3 Xrotation Yrotation Zrotation
					JOINT Head
					{
						OFFSET 1.552681 10.338165 -0.734241
						CHANNELS 3 Xrotation Yrotation Zrotation
						End Site
						{
							OFFSET 1.624927 10.327057 -0.734277
						}
					}
				}
				JOINT LeftCollar
				{
					OFFSET -1.740152 13.542831 3.920211
					CHANNELS 3 Xrotation Yrotation Zrotation
					JOINT LeftUpArm
					{
						OFFSET 13.312329 2.926651 11.077728
						CHANNELS 3 Xrotation Yrotation Zrotation
						JOINT LeftLowArm
						{
							OFFSET 5.749687 21.841446 25.092239
							CHANNELS 3 Xrotation Yrotation Zrotation
							JOINT LeftHand
							{
								OFFSET 14.731552 24.176743 9.970612
								CHANNELS 3 Xrotation Yrotation Zrotation
								End Site
								{
									OFFSET 3.219681 5.283966 2.179146
								}
							}
						}
					}
				}
				JOINT RightCollar
				{
					OFFSET -2.709616 13.221375 -4.434183
					CHANNELS 3 Xrotation Yrotation Zrotation
					JOINT RightUpArm
					{
						OFFSET 11.321449 2.737305 -13.146418
						CHANNELS 3 Xrotation Yrotation Zrotation
						JOINT RightLowArm
						{
							OFFSET 4.508937 23.780701 -23.534693
							CHANNELS 3 Xrotation Yrotation Zrotation
							JOINT RightHand
							{
								OFFSET 14.784779 23.860367 -10.632393
								CHANNELS 3 Xrotation Yrotation Zrotation
								End Site
								{
									OFFSET 3.231369 5.214920 -2.323818
								}
							}
						}
					}
				}
			}
		}
	}
	JOINT LeftUpLeg
	{
		OFFSET 0.759048 1.039589 9.937921
		CHANNELS 3 Xrotation Yrotation Zrotation
		JOINT LeftLowLeg
		{
			OFFSET 36.456814 -24.522659 17.706778
			CHANNELS 3 Xrotation Yrotation Zrotation
			JOINT LeftFoot
			{
				OFFSET 40.194851 19.154495 -4.248346
				CHANNELS 3 Xrotation Yrotation Zrotation
				JOINT LeftToe
				{
					OFFSET 23.431808 3.025635 -1.164291
					CHANNELS 3 Xrotation Yrotation Zrotation
					End Site
					{
						OFFSET 20.143188 -10.590546 6.453777
					}
				}
			}
		}
	}
	JOINT RightUpLeg
	{
		OFFSET -0.758958 -1.039764 -9.937912
		CHANNELS 3 Xrotation Yrotation Zrotation
		JOINT RightLowLeg
		{
			OFFSET -6.657955 -46.574608 -5.521642
			CHANNELS 3 Xrotation Yrotation Zrotation
			JOINT RightFoot
			{
				OFFSET 15.489738 -41.938965 1.330385
				CHANNELS 3 Xrotation Yrotation Zrotation
				JOINT RightToe
				{
					OFFSET -14.884882 -16.909721 -7.215136
					CHANNELS 3 Xrotation Yrotation Zrotation
					End Site
					{
						OFFSET -21.580368 -2.594293 -9.333464
					}
				}
			}
		}
	}
}
MOTION
Frames: 11
Frame Time: 0.033333
12.862096 104.430237 3.506297 -174.791180 173.181482 -191.944052 1.377985 0.208607 4.611737 0.943728 1.862821 10.552792 -2.976594 -7.893280 -0.627567 -1.346946 -1.331864 24.835259 0.000001 0.000000 0.000001 -8.892627 -13.423326 14.430361 -17.602953 -9.724814 19.220583 -17.180362 4.318500 14.614860 -0.000000 -0.000003 0.000001 3.232479 13.232540 12.132709 14.160054 11.875862 18.303850 22.591153 -3.938456 17.047816 -0.000003 0.000001 -0.000001 10.563996 0.771492 -15.194750 -8.468153 -11.846811 -44.977977 -0.219747 -0.261809 5.378263 0.000002 0.000002 0.000000 -2.938254 -0.595261 8.441628 2.843608 -2.557222 -6.759352 -6.752286 6.890326 7.324230 -0.000000 -0.000001 0.000000 
12.318804 104.596558 3.504424 -174.823295 173.289371 -191.799867 1.855360 0.430918 4.639602 -0.173655 1.008323 9.632419 -1.893336 -7.194652 -0.055795 -0.981208 -0.895036 24.021137 0.000000 0.000000 0.000002 -9.261878 -12.528809 14.207308 -17.546852 -7.818681 18.912947 -18.229387 5.761465 14.237802 -0.000002 0.000002 0.000000 3.957211 12.362812 11.942103 13.815165 10.412383 18.030193 23.145698 -5.753997 16.081137 -0.000001 0.000001 0.000001 10.719782 0.849070 -15.215517 -8.486374 -11.666594 -44.917527 -0.391841 -0.666395 5.702576 0.000001 -0.000000 0.000004 -3.072587 -0.556048 8.413629 3.211397 -2.500716 -6.271200 -7.270675 7.786819 7.264833 0.000000 0.000003 0.000000 
11.745998 104.741028 3.501738 -174.974051 173.314165 -191.732521 1.659478 0.390800 4.753050 1.347196 2.101142 9.043285 -2.906310 -8.201480 -0.032923 -1.188740 -1.256935 22.810545 0.000001 -0.000000 -0.000002 -9.640009 -11.362791 13.378063 -18.266139 -6.654585 18.399034 -17.411955 6.564917 13.086823 -0.000001 -0.000003 0.000000 4.551028 11.570496 11.329481 13.875217 8.523123 16.729920 23.331337 -6.537477 15.383111 -0.000001 0.000001 -0.000001 10.513799 0.866267 -14.821490 -8.620034 -11.679840 -45.338861 -0.642389 -0.955126 6.228528 0.000003 -0.000000 0.000002 -3.104150 -0.553552 8.565950 2.991041 -2.421911 -5.809335 -6.979363 7.632041 7.027261 0.000000 0.000001 -0.000000 
11.121698 104.865181 3.516624 -174.517494 174.034409 -191.014313 1.098037 0.071121 4.130857 2.119273 2.702949 8.748029 -3.870013 -7.489374 -0.561729 -1.284056 -0.993646 21.824169 -0.000000 -0.000000 0.000002 -10.009284 -9.857135 12.775799 -17.802919 -5.236983 17.401351 -13.096656 7.003330 10.414621 -0.000003 0.000002 -0.000002 5.082830 10.812921 10.837219 13.117223 7.929504 16.087390 20.642295 -6.949514 12.725318 0.000002 0.000002 0.000001 10.074555 0.633151 -14.734345 -8.485028 -12.071600 -46.187542 -1.468418 -1.971051 7.089290 0.000004 0.000001 0.000003 -3.613569 -0.603260 8.010128 2.092258 -2.148374 -5.278405 -5.085259 5.321755 5.565823 0.000000 0.000003 0.000000 
10.509449 104.973137 3.515079 -174.116917 173.706245 -190.656753 0.841882 -0.040946 3.540509 1.555704 2.174527 8.606294 -3.391746 -6.868048 -0.649190 -1.293774 -1.124212 21.232077 0.000000 -0.000000 0.000000 -10.094702 -9.557332 12.224206 -17.933836 -4.556914 16.148637 -11.771834 5.994912 9.692524 0.000005 -0.000003 -0.000000 5.095132 10.310220 10.251769 12.798998 7.786886 14.983618 20.135582 -6.425667 12.318293 0.000002 0.000000 -0.000000 9.620686 0.569271 -14.649579 -8.350204 -12.280442 -46.665058 -2.092865 -2.971456 7.320038 0.000006 0.000000 0.000004 -3.894052 -0.788846 8.059021 1.609005 -1.935643 -5.370790 -4.339839 4.247361 4.793823 0.000001 0.000001 0.000000 
9.861753 105.054382 3.518133 -174.244000 173.779274 -190.074889 1.020552 -0.011332 3.149801 1.185500 1.893245 8.319435 -3.013834 -6.501585 -0.847781 -1.475086 -0.780999 20.145933 0.000001 -0.000000 0.000000 -9.806915 -8.297385 11.674906 -18.014235 -2.962104 15.168715 -9.440208 5.659582 8.079482 -0.000002 -0.000003 0.000003 5.212463 9.323926 9.647592 12.756285 6.430416 14.245487 18.798043 -6.165504 10.772176 0.000000 0.000001 0.000003 9.396341 0.537612 -14.234651 -8.382821 -12.650384 -47.534271 -2.287947 -3.411744 7.061921 0.000004 0.000001 0.000003 -3.679633 -0.745112 7.935460 1.171876 -1.794353 -5.032696 -3.627213 3.475862 4.104942 0.000001 0.000001 -0.000000 
9.183836 105.108727 3.513659 -174.476663 173.378301 -189.832896 1.196545 0.031313 2.857004 0.342211 1.290018 8.168403 -1.867164 -6.156531 -0.608453 -1.727358 -0.932377 18.658197 0.000000 -0.000000 0.000000 -9.433869 -6.901564 11.078142 -18.079405 -0.938323 14.725464 -8.067790 7.117561 6.819339 -0.000003 0.000003 -0.000003 4.942184 8.010991 9.123344 12.007036 4.293362 13.316574 18.142533 -7.093702 9.995507 -0.000005 0.000000 -0.000000 9.053843 0.664117 -13.658531 -8.441733 -12.726353 -47.643827 -1.968523 -3.493142 5.644486 0.000001 -0.000001 -0.000003 -3.419102 -0.732904 8.228880 1.192600 -1.804337 -4.841178 -3.173438 3.259286 3.421376 0.000000 -0.000001 0.000000 
8.534380 105.141167 3.515472 -175.417604 172.567120 -189.676921 2.239333 0.487955 3.051441 -1.402821 0.069702 7.765472 -0.129020 -5.838579 -0.357581 -1.615108 -0.698321 17.288968 0.000001 -0.000000 -0.000001 -9.101178 -5.717187 10.900899 -18.347852 0.801568 14.751453 -5.816625 8.256030 5.225699 -0.000000 0.000002 -0.000002 4.516974 6.737401 8.862152 12.571590 1.915770 13.171819 16.280502 -7.866103 8.729561 -0.000001 0.000000 -0.000004 9.263992 0.842046 -13.429132 -8.452987 -12.418725 -46.908435 -1.399448 -3.410747 4.284296 0.000002 -0.000000 0.000002 -2.604501 -0.526604 8.471969 0.934386 -2.162007 -4.744134 -2.634733 2.943229 3.354973 0.000000 0.000003 -0.000001 
7.879420 105.152222 3.521005 -175.092610 172.525060 -189.698040 1.769494 0.156574 3.366501 0.330008 1.431113 7.382763 -2.122094 -6.354623 -0.407408 -2.035113 -1.107050 16.311658 0.000000 -0.000000 0.000001 -7.838874 -4.418112 10.894025 -19.181345 3.539928 15.632003 -2.394308 10.298273 2.989099 0.000003 -0.000002 -0.000001 4.990587 5.234531 8.983255 12.067372 -0.515517 13.881008 13.249327 -10.157932 6.435376 0.000005 -0.000001 -0.000002 8.375447 0.151062 -13.202107 -7.076264 -10.303990 -43.942913 -2.066469 -6.399039 3.056133 0.000002 -0.000001 0.000000 -3.041441 -0.454845 8.495289 0.726329 -2.501348 -3.962111 -2.082763 3.237554 2.644413 0.000000 -0.000001 -0.000000 
7.224618 105.120461 3.538527 -176.496268 171.499630 -189.739459 2.500829 0.517350 3.774518 0.956237 1.781155 7.051737 -2.440166 -7.923416 -0.351279 -1.182569 -0.476528 15.112419 0.000001 -0.000000 0.000000 -7.734037 -3.559364 10.222311 -18.524474 4.521601 15.013808 -1.473314 10.687647 1.996723 -0.000001 -0.000003 -0.000001 5.234322 4.400316 8.605981 11.693335 -2.028982 12.938145 12.382437 -10.465685 5.929721 0.000002 -0.000001 -0.000002 7.745665 -0.201228 -13.218384 -5.117876 -8.119581 -38.950882 -3.325128 -9.460993 2.219872 0.000002 0.000001 0.000001 -1.400624 -0.079684 8.861526 0.042423 -2.022770 -3.420326 -1.798448 2.570261 2.257245 0.000000 0.000003 -0.000001 
6.611146 105.074890 3.556757 -176.069723 172.158962 -189.615518 2.015591 0.271479 3.915993 1.705953 2.314061 6.568584 -3.368613 -7.447676 -0.354922 -1.740586 -0.817706 14.442560 0.000000 -0.000000 0.000000 -6.229768 -3.368691 10.281200 -19.131710 6.604987 15.285523 0.959609 11.574186 0.932258 -0.000000 0.000000 -0.000000 4.490634 3.547358 8.540187 11.572845 -3.482434 13.309476 9.945256 -11.819060 4.435560 0.000000 -0.000002 -0.000003 6.753038 -0.768348 -12.980655 -3.498099 -5.175661 -35.529223 -4.750795 -12.895042 2.445827 0.000002 0.000002 0.000002 -1.785736 -0.134791 8.712086 0.163825 -2.130778 -2.879330 -1.788091 3.434147 1.813705 0.000000 0.000001 0.000001 
